<svg width="14" height="14" viewBox="0 0 14 14" fill="none" xmlns="http://www.w3.org/2000/svg">
<g id="Iconly/Bold/Star">
<g id="Star">
<path id="Star_2" d="M10.4523 8.35339C10.3012 8.49981 10.2318 8.71156 10.2662 8.91922L10.7848 11.7892C10.8286 12.0325 10.7259 12.2786 10.5223 12.4192C10.3228 12.5651 10.0574 12.5826 9.8398 12.4659L7.25622 11.1184C7.16638 11.0706 7.06663 11.0449 6.96455 11.042H6.80647C6.75163 11.0501 6.69797 11.0676 6.64897 11.0945L4.0648 12.4484C3.93705 12.5126 3.79238 12.5353 3.65063 12.5126C3.3053 12.4472 3.07488 12.1182 3.13147 11.7711L3.65063 8.90114C3.68505 8.69172 3.61563 8.47881 3.46455 8.33006L1.35813 6.28839C1.18197 6.11747 1.12072 5.86081 1.20122 5.62922C1.27938 5.39822 1.47888 5.22964 1.7198 5.19172L4.61897 4.77114C4.83947 4.74839 5.03313 4.61422 5.1323 4.41589L6.4098 1.79672C6.44013 1.73839 6.47922 1.68472 6.52647 1.63922L6.57897 1.59839C6.60638 1.56806 6.63788 1.54297 6.67288 1.52256L6.73647 1.49922L6.83563 1.45839H7.08122C7.30055 1.48114 7.49363 1.61239 7.59455 1.80839L8.88897 4.41589C8.9823 4.60664 9.16372 4.73906 9.37313 4.77114L12.2723 5.19172C12.5173 5.22672 12.7221 5.39589 12.8031 5.62922C12.8796 5.86314 12.8136 6.11981 12.634 6.28839L10.4523 8.35339Z" fill="#FFAC37"/>
</g>
</g>
</svg>
